<mxfile modified="2021-07-12T10:20:40.069Z" host="app.diagrams.net" agent="5.0 (Macintosh; Intel Mac OS X 10_15_7) AppleWebKit/537.36 (KHTML, like Gecko) Chrome/88.0.4324.150 Safari/537.36 Edg/88.0.705.63" etag="gixIf1ViBejuR3-Ce0xK" version="14.8.5" type="github">
  <diagram id="Ht1M8jgEwFfnCIfOTk4-" name="Page-1">
    <mxGraphModel dx="1399" dy="755" grid="1" gridSize="10" guides="1" tooltips="1" connect="1" arrows="1" fold="1" page="1" pageScale="1" pageWidth="827" pageHeight="1169" math="0" shadow="0">
      <root>
        <mxCell id="0" />
        <mxCell id="1" parent="0" />
        <mxCell id="1Op8A7p5LswZUNTb8-j7-78" value="" style="rounded=1;whiteSpace=wrap;html=1;shadow=0;comic=1;gradientColor=#ffffff;arcSize=0;dashed=1;" parent="1" vertex="1">
          <mxGeometry x="285" y="840" width="1095" height="270" as="geometry" />
        </mxCell>
        <mxCell id="1Op8A7p5LswZUNTb8-j7-79" value="" style="rounded=1;whiteSpace=wrap;html=1;shadow=0;comic=1;gradientColor=#ffffff;arcSize=0;dashed=1;" parent="1" vertex="1">
          <mxGeometry x="285" y="630" width="1095" height="200" as="geometry" />
        </mxCell>
        <mxCell id="1Op8A7p5LswZUNTb8-j7-80" style="edgeStyle=orthogonalEdgeStyle;rounded=0;orthogonalLoop=1;jettySize=auto;html=1;entryX=0.5;entryY=0;entryDx=0;entryDy=0;" parent="1" source="1Op8A7p5LswZUNTb8-j7-81" target="1Op8A7p5LswZUNTb8-j7-83" edge="1">
          <mxGeometry relative="1" as="geometry" />
        </mxCell>
        <mxCell id="1Op8A7p5LswZUNTb8-j7-81" value="" style="html=1;verticalLabelPosition=bottom;align=center;labelBackgroundColor=#ffffff;verticalAlign=top;strokeWidth=2;strokeColor=#0080F0;shadow=0;dashed=0;shape=mxgraph.ios7.icons.user;rounded=1;comic=1;gradientColor=#ffffff;" parent="1" vertex="1">
          <mxGeometry x="687.5" y="400" width="30" height="30" as="geometry" />
        </mxCell>
        <mxCell id="1Op8A7p5LswZUNTb8-j7-82" value="" style="edgeStyle=orthogonalEdgeStyle;rounded=0;orthogonalLoop=1;jettySize=auto;html=1;" parent="1" source="1Op8A7p5LswZUNTb8-j7-83" target="1Op8A7p5LswZUNTb8-j7-85" edge="1">
          <mxGeometry relative="1" as="geometry" />
        </mxCell>
        <mxCell id="1Op8A7p5LswZUNTb8-j7-83" value="login/ checksession" style="rounded=0;whiteSpace=wrap;html=1;shadow=0;comic=1;gradientColor=#ffffff;" parent="1" vertex="1">
          <mxGeometry x="642.5" y="460" width="120" height="30" as="geometry" />
        </mxCell>
        <mxCell id="1Op8A7p5LswZUNTb8-j7-84" style="edgeStyle=orthogonalEdgeStyle;rounded=0;orthogonalLoop=1;jettySize=auto;html=1;entryX=0.5;entryY=0;entryDx=0;entryDy=0;" parent="1" source="1Op8A7p5LswZUNTb8-j7-85" target="1Op8A7p5LswZUNTb8-j7-88" edge="1">
          <mxGeometry relative="1" as="geometry" />
        </mxCell>
        <mxCell id="1Op8A7p5LswZUNTb8-j7-85" value="SSO Authentication" style="rounded=0;whiteSpace=wrap;html=1;shadow=0;comic=1;gradientColor=#ffffff;" parent="1" vertex="1">
          <mxGeometry x="642.5" y="540" width="120" height="30" as="geometry" />
        </mxCell>
        <mxCell id="1Op8A7p5LswZUNTb8-j7-86" value="Request with client_id" style="text;html=1;align=center;verticalAlign=middle;resizable=0;points=[];autosize=1;" parent="1" vertex="1">
          <mxGeometry x="696.5" y="500" width="130" height="20" as="geometry" />
        </mxCell>
        <mxCell id="1Op8A7p5LswZUNTb8-j7-87" style="edgeStyle=orthogonalEdgeStyle;rounded=0;orthogonalLoop=1;jettySize=auto;html=1;entryX=0.5;entryY=0;entryDx=0;entryDy=0;" parent="1" source="1Op8A7p5LswZUNTb8-j7-88" target="1Op8A7p5LswZUNTb8-j7-93" edge="1">
          <mxGeometry relative="1" as="geometry" />
        </mxCell>
        <mxCell id="1Op8A7p5LswZUNTb8-j7-88" value="Extract Product from request client_id" style="rounded=0;whiteSpace=wrap;html=1;shadow=0;comic=1;gradientColor=#ffffff;" parent="1" vertex="1">
          <mxGeometry x="642.5" y="610" width="120" height="30" as="geometry" />
        </mxCell>
        <mxCell id="1Op8A7p5LswZUNTb8-j7-89" value="Identify and get Sesion" style="text;html=1;align=center;verticalAlign=middle;resizable=0;points=[];autosize=1;" parent="1" vertex="1">
          <mxGeometry x="693.5" y="580" width="140" height="20" as="geometry" />
        </mxCell>
        <mxCell id="1Op8A7p5LswZUNTb8-j7-90" style="edgeStyle=orthogonalEdgeStyle;rounded=0;orthogonalLoop=1;jettySize=auto;html=1;entryX=0.5;entryY=0;entryDx=0;entryDy=0;" parent="1" target="1Op8A7p5LswZUNTb8-j7-111" edge="1">
          <mxGeometry relative="1" as="geometry">
            <mxPoint x="702.5" y="870" as="sourcePoint" />
          </mxGeometry>
        </mxCell>
        <mxCell id="1Op8A7p5LswZUNTb8-j7-91" value="Get the account privileges filtered by the Product" style="rounded=0;whiteSpace=wrap;html=1;shadow=0;comic=1;gradientColor=#ffffff;" parent="1" vertex="1">
          <mxGeometry x="642.5" y="840" width="120" height="40" as="geometry" />
        </mxCell>
        <mxCell id="1Op8A7p5LswZUNTb8-j7-92" style="edgeStyle=orthogonalEdgeStyle;rounded=0;orthogonalLoop=1;jettySize=auto;html=1;exitX=0.5;exitY=1;exitDx=0;exitDy=0;entryX=0.5;entryY=0;entryDx=0;entryDy=0;" parent="1" source="1Op8A7p5LswZUNTb8-j7-93" target="1Op8A7p5LswZUNTb8-j7-98" edge="1">
          <mxGeometry relative="1" as="geometry" />
        </mxCell>
        <mxCell id="1Op8A7p5LswZUNTb8-j7-93" value="Identity authenticate" style="rounded=0;whiteSpace=wrap;html=1;shadow=0;comic=1;gradientColor=#ffffff;" parent="1" vertex="1">
          <mxGeometry x="642.5" y="670" width="120" height="30" as="geometry" />
        </mxCell>
        <mxCell id="1Op8A7p5LswZUNTb8-j7-94" value="" style="edgeStyle=orthogonalEdgeStyle;rounded=0;orthogonalLoop=1;jettySize=auto;html=1;entryX=0;entryY=0.5;entryDx=0;entryDy=0;" parent="1" source="1Op8A7p5LswZUNTb8-j7-98" target="1Op8A7p5LswZUNTb8-j7-99" edge="1">
          <mxGeometry relative="1" as="geometry">
            <Array as="points">
              <mxPoint x="812.5" y="745" />
              <mxPoint x="812.5" y="690" />
            </Array>
          </mxGeometry>
        </mxCell>
        <mxCell id="1Op8A7p5LswZUNTb8-j7-95" style="edgeStyle=orthogonalEdgeStyle;rounded=0;orthogonalLoop=1;jettySize=auto;html=1;entryX=0;entryY=0.5;entryDx=0;entryDy=0;" parent="1" source="1Op8A7p5LswZUNTb8-j7-98" target="1Op8A7p5LswZUNTb8-j7-100" edge="1">
          <mxGeometry relative="1" as="geometry" />
        </mxCell>
        <mxCell id="1Op8A7p5LswZUNTb8-j7-96" style="edgeStyle=orthogonalEdgeStyle;rounded=0;orthogonalLoop=1;jettySize=auto;html=1;entryX=0;entryY=0.5;entryDx=0;entryDy=0;" parent="1" source="1Op8A7p5LswZUNTb8-j7-98" target="1Op8A7p5LswZUNTb8-j7-101" edge="1">
          <mxGeometry relative="1" as="geometry">
            <Array as="points">
              <mxPoint x="812.5" y="745" />
              <mxPoint x="812.5" y="796" />
            </Array>
          </mxGeometry>
        </mxCell>
        <mxCell id="1Op8A7p5LswZUNTb8-j7-97" style="edgeStyle=orthogonalEdgeStyle;rounded=0;orthogonalLoop=1;jettySize=auto;html=1;entryX=0.5;entryY=0;entryDx=0;entryDy=0;" parent="1" source="1Op8A7p5LswZUNTb8-j7-98" target="1Op8A7p5LswZUNTb8-j7-91" edge="1">
          <mxGeometry relative="1" as="geometry" />
        </mxCell>
        <mxCell id="1Op8A7p5LswZUNTb8-j7-98" value="Save basic session" style="rounded=0;whiteSpace=wrap;html=1;shadow=0;comic=1;gradientColor=#ffffff;" parent="1" vertex="1">
          <mxGeometry x="642.5" y="730" width="120" height="30" as="geometry" />
        </mxCell>
        <mxCell id="1Op8A7p5LswZUNTb8-j7-99" value="Store/Refresh Session Hash info MAP" style="rounded=0;whiteSpace=wrap;html=1;shadow=0;comic=1;gradientColor=#ffffff;" parent="1" vertex="1">
          <mxGeometry x="852.5" y="670" width="120" height="40" as="geometry" />
        </mxCell>
        <mxCell id="1Op8A7p5LswZUNTb8-j7-100" value="Store/Refresh Session expiring sorted SET&amp;nbsp;" style="rounded=0;whiteSpace=wrap;html=1;shadow=0;comic=1;gradientColor=#ffffff;" parent="1" vertex="1">
          <mxGeometry x="852.5" y="725" width="120" height="40" as="geometry" />
        </mxCell>
        <mxCell id="1Op8A7p5LswZUNTb8-j7-101" value="Store/Refresh Session identifier SET" style="rounded=0;whiteSpace=wrap;html=1;shadow=0;comic=1;gradientColor=#ffffff;" parent="1" vertex="1">
          <mxGeometry x="852.5" y="776.5" width="120" height="39" as="geometry" />
        </mxCell>
        <mxCell id="1Op8A7p5LswZUNTb8-j7-102" value="&lt;p style=&quot;margin: 10px 0px 0px ; padding: 0px&quot;&gt;MapName:IDENTITY:SSO:SESSION_HASH&lt;/p&gt;&lt;p style=&quot;margin: 10px 0px 0px ; padding: 0px&quot;&gt;Key: sessionId, value: session&amp;nbsp;&amp;nbsp;&lt;/p&gt;" style="text;html=1;align=center;verticalAlign=middle;resizable=0;points=[];autosize=1;fillColor=#dae8fc;strokeColor=#6c8ebf;" parent="1" vertex="1">
          <mxGeometry x="987.5" y="661" width="250" height="50" as="geometry" />
        </mxCell>
        <mxCell id="1Op8A7p5LswZUNTb8-j7-103" value="key:IDENTITY:SSO:SESSION_EXPIRING_ID_SET,&lt;br&gt;value:sessionId, score: expiredAt" style="text;html=1;align=center;verticalAlign=middle;resizable=0;points=[];autosize=1;fillColor=#dae8fc;strokeColor=#6c8ebf;" parent="1" vertex="1">
          <mxGeometry x="987.5" y="733" width="290" height="30" as="geometry" />
        </mxCell>
        <mxCell id="1Op8A7p5LswZUNTb8-j7-104" value="key:IDENTITY:SSO:SESSION_IDS_BY_IDENTIFIER_SET_{identifier},&lt;br&gt;value:sessionId Set" style="text;html=1;align=center;verticalAlign=middle;resizable=0;points=[];autosize=1;fillColor=#dae8fc;strokeColor=#6c8ebf;" parent="1" vertex="1">
          <mxGeometry x="987.5" y="781" width="390" height="30" as="geometry" />
        </mxCell>
        <mxCell id="1Op8A7p5LswZUNTb8-j7-105" value="" style="edgeStyle=orthogonalEdgeStyle;rounded=0;orthogonalLoop=1;jettySize=auto;html=1;" parent="1" source="1Op8A7p5LswZUNTb8-j7-111" target="1Op8A7p5LswZUNTb8-j7-112" edge="1">
          <mxGeometry relative="1" as="geometry" />
        </mxCell>
        <mxCell id="1Op8A7p5LswZUNTb8-j7-106" style="edgeStyle=orthogonalEdgeStyle;rounded=0;orthogonalLoop=1;jettySize=auto;html=1;entryX=0;entryY=0.5;entryDx=0;entryDy=0;" parent="1" source="1Op8A7p5LswZUNTb8-j7-111" target="1Op8A7p5LswZUNTb8-j7-114" edge="1">
          <mxGeometry relative="1" as="geometry" />
        </mxCell>
        <mxCell id="1Op8A7p5LswZUNTb8-j7-107" style="edgeStyle=orthogonalEdgeStyle;rounded=0;orthogonalLoop=1;jettySize=auto;html=1;exitX=0.5;exitY=1;exitDx=0;exitDy=0;" parent="1" source="1Op8A7p5LswZUNTb8-j7-132" target="1Op8A7p5LswZUNTb8-j7-123" edge="1">
          <mxGeometry relative="1" as="geometry" />
        </mxCell>
        <mxCell id="1Op8A7p5LswZUNTb8-j7-108" value="Phase 2" style="edgeLabel;html=1;align=center;verticalAlign=middle;resizable=0;points=[];" parent="1Op8A7p5LswZUNTb8-j7-107" vertex="1" connectable="0">
          <mxGeometry x="0.0222" y="-2" relative="1" as="geometry">
            <mxPoint y="-7.3" as="offset" />
          </mxGeometry>
        </mxCell>
        <mxCell id="1Op8A7p5LswZUNTb8-j7-109" style="edgeStyle=orthogonalEdgeStyle;rounded=0;orthogonalLoop=1;jettySize=auto;html=1;exitX=0.5;exitY=1;exitDx=0;exitDy=0;" parent="1" source="1Op8A7p5LswZUNTb8-j7-132" target="1Op8A7p5LswZUNTb8-j7-124" edge="1">
          <mxGeometry relative="1" as="geometry" />
        </mxCell>
        <mxCell id="1Op8A7p5LswZUNTb8-j7-110" value="Y" style="edgeLabel;html=1;align=center;verticalAlign=middle;resizable=0;points=[];" parent="1Op8A7p5LswZUNTb8-j7-109" vertex="1" connectable="0">
          <mxGeometry x="-0.8346" relative="1" as="geometry">
            <mxPoint as="offset" />
          </mxGeometry>
        </mxCell>
        <mxCell id="1Op8A7p5LswZUNTb8-j7-111" value="Add extra privilege session" style="rounded=0;whiteSpace=wrap;html=1;shadow=0;comic=1;gradientColor=#ffffff;" parent="1" vertex="1">
          <mxGeometry x="642.5" y="900" width="120" height="30" as="geometry" />
        </mxCell>
        <mxCell id="1Op8A7p5LswZUNTb8-j7-112" value="Store/Refresh Privilege sessions SET" style="rounded=0;whiteSpace=wrap;html=1;shadow=0;comic=1;gradientColor=#ffffff;" parent="1" vertex="1">
          <mxGeometry x="842.5" y="870" width="120" height="40" as="geometry" />
        </mxCell>
        <mxCell id="1Op8A7p5LswZUNTb8-j7-113" value="&amp;nbsp; &amp;nbsp; &amp;nbsp;key PREFIX_companyId_cpId,&lt;br&gt;value:session_id Set&lt;span&gt;&amp;nbsp;&lt;/span&gt;" style="text;html=1;align=center;verticalAlign=middle;resizable=0;points=[];autosize=1;fillColor=#dae8fc;strokeColor=#6c8ebf;" parent="1" vertex="1">
          <mxGeometry x="987.5" y="880" width="200" height="30" as="geometry" />
        </mxCell>
        <mxCell id="1Op8A7p5LswZUNTb8-j7-114" value="Store/Refresh Privilege session MAP" style="rounded=0;whiteSpace=wrap;html=1;shadow=0;comic=1;gradientColor=#ffffff;" parent="1" vertex="1">
          <mxGeometry x="842.5" y="920" width="120" height="45" as="geometry" />
        </mxCell>
        <mxCell id="1Op8A7p5LswZUNTb8-j7-115" value="&lt;p style=&quot;margin: 10px 0px 0px ; padding: 0px&quot;&gt;MapName:IDENTITY:SSO:PRIVILEGE_SESSION_HASH&lt;/p&gt;&lt;p style=&quot;margin: 10px 0px 0px ; padding: 0px&quot;&gt;&lt;span&gt;Key: sessionId_cpId, value: session&lt;/span&gt;&lt;/p&gt;" style="text;html=1;align=center;verticalAlign=middle;resizable=0;points=[];autosize=1;fillColor=#dae8fc;strokeColor=#6c8ebf;" parent="1" vertex="1">
          <mxGeometry x="987.5" y="915" width="320" height="50" as="geometry" />
        </mxCell>
        <mxCell id="1Op8A7p5LswZUNTb8-j7-116" style="edgeStyle=orthogonalEdgeStyle;rounded=0;orthogonalLoop=1;jettySize=auto;html=1;" parent="1" target="1Op8A7p5LswZUNTb8-j7-98" edge="1">
          <mxGeometry relative="1" as="geometry">
            <mxPoint x="552.5" y="745" as="sourcePoint" />
          </mxGeometry>
        </mxCell>
        <mxCell id="1Op8A7p5LswZUNTb8-j7-117" value="N" style="edgeLabel;html=1;align=center;verticalAlign=middle;resizable=0;points=[];" parent="1Op8A7p5LswZUNTb8-j7-116" vertex="1" connectable="0">
          <mxGeometry x="0.44" y="-1" relative="1" as="geometry">
            <mxPoint x="-6" y="-6" as="offset" />
          </mxGeometry>
        </mxCell>
        <mxCell id="1Op8A7p5LswZUNTb8-j7-118" style="edgeStyle=orthogonalEdgeStyle;rounded=0;orthogonalLoop=1;jettySize=auto;html=1;entryX=0;entryY=0.5;entryDx=0;entryDy=0;" parent="1" source="1Op8A7p5LswZUNTb8-j7-119" target="1Op8A7p5LswZUNTb8-j7-128" edge="1">
          <mxGeometry relative="1" as="geometry" />
        </mxCell>
        <mxCell id="1Op8A7p5LswZUNTb8-j7-119" value="Check basic session limitation(Not privilege)" style="rounded=0;whiteSpace=wrap;html=1;shadow=0;comic=1;gradientColor=#ffffff;" parent="1" vertex="1">
          <mxGeometry x="332.5" y="727" width="120" height="36" as="geometry" />
        </mxCell>
        <mxCell id="1Op8A7p5LswZUNTb8-j7-120" value="" style="edgeStyle=orthogonalEdgeStyle;rounded=0;orthogonalLoop=1;jettySize=auto;html=1;entryX=0;entryY=0.5;entryDx=0;entryDy=0;" parent="1" source="1Op8A7p5LswZUNTb8-j7-121" target="1Op8A7p5LswZUNTb8-j7-132" edge="1">
          <mxGeometry relative="1" as="geometry">
            <mxPoint x="492.5" y="915" as="targetPoint" />
          </mxGeometry>
        </mxCell>
        <mxCell id="1Op8A7p5LswZUNTb8-j7-121" value="Check extra session limitation" style="rounded=0;whiteSpace=wrap;html=1;shadow=0;comic=1;gradientColor=#ffffff;" parent="1" vertex="1">
          <mxGeometry x="332.5" y="900" width="120" height="30" as="geometry" />
        </mxCell>
        <mxCell id="1Op8A7p5LswZUNTb8-j7-122" style="edgeStyle=orthogonalEdgeStyle;rounded=0;orthogonalLoop=1;jettySize=auto;html=1;exitX=0.5;exitY=1;exitDx=0;exitDy=0;entryX=0.5;entryY=0;entryDx=0;entryDy=0;" parent="1" source="1Op8A7p5LswZUNTb8-j7-123" target="1Op8A7p5LswZUNTb8-j7-134" edge="1">
          <mxGeometry relative="1" as="geometry" />
        </mxCell>
        <mxCell id="1Op8A7p5LswZUNTb8-j7-123" value="Only remove the most idle privilege session" style="rounded=0;whiteSpace=wrap;html=1;shadow=0;comic=1;gradientColor=#ffffff;" parent="1" vertex="1">
          <mxGeometry x="555" y="995.5" width="120" height="30" as="geometry" />
        </mxCell>
        <mxCell id="1Op8A7p5LswZUNTb8-j7-124" value="Kick out the most idle session&amp;nbsp;" style="rounded=0;whiteSpace=wrap;html=1;shadow=0;comic=1;gradientColor=#ffffff;" parent="1" vertex="1">
          <mxGeometry x="410" y="995.5" width="120" height="30" as="geometry" />
        </mxCell>
        <mxCell id="1Op8A7p5LswZUNTb8-j7-125" value="Phase 1" style="edgeLabel;html=1;align=center;verticalAlign=middle;resizable=0;points=[];" parent="1" vertex="1" connectable="0">
          <mxGeometry x="502.5" y="962" as="geometry">
            <mxPoint x="4" y="-3" as="offset" />
          </mxGeometry>
        </mxCell>
        <mxCell id="1Op8A7p5LswZUNTb8-j7-126" style="edgeStyle=orthogonalEdgeStyle;rounded=0;orthogonalLoop=1;jettySize=auto;html=1;exitX=0.5;exitY=1;exitDx=0;exitDy=0;" parent="1" source="1Op8A7p5LswZUNTb8-j7-128" edge="1">
          <mxGeometry relative="1" as="geometry">
            <mxPoint x="542.5" y="790" as="targetPoint" />
          </mxGeometry>
        </mxCell>
        <mxCell id="1Op8A7p5LswZUNTb8-j7-127" value="Y" style="edgeLabel;html=1;align=center;verticalAlign=middle;resizable=0;points=[];" parent="1Op8A7p5LswZUNTb8-j7-126" vertex="1" connectable="0">
          <mxGeometry x="-0.6" y="-1" relative="1" as="geometry">
            <mxPoint as="offset" />
          </mxGeometry>
        </mxCell>
        <mxCell id="1Op8A7p5LswZUNTb8-j7-128" value="Exceed limitation" style="rhombus;whiteSpace=wrap;html=1;rounded=1;shadow=0;comic=1;gradientColor=#ffffff;" parent="1" vertex="1">
          <mxGeometry x="502.5" y="725" width="80" height="40" as="geometry" />
        </mxCell>
        <mxCell id="1Op8A7p5LswZUNTb8-j7-129" value="Kick out the most idle session&amp;nbsp;" style="rounded=0;whiteSpace=wrap;html=1;shadow=0;comic=1;gradientColor=#ffffff;" parent="1" vertex="1">
          <mxGeometry x="477.5" y="790" width="130" height="40" as="geometry" />
        </mxCell>
        <mxCell id="1Op8A7p5LswZUNTb8-j7-130" style="edgeStyle=orthogonalEdgeStyle;rounded=0;orthogonalLoop=1;jettySize=auto;html=1;exitX=1;exitY=0.5;exitDx=0;exitDy=0;entryX=0;entryY=0.5;entryDx=0;entryDy=0;" parent="1" source="1Op8A7p5LswZUNTb8-j7-132" target="1Op8A7p5LswZUNTb8-j7-111" edge="1">
          <mxGeometry relative="1" as="geometry" />
        </mxCell>
        <mxCell id="1Op8A7p5LswZUNTb8-j7-131" value="N" style="edgeLabel;html=1;align=center;verticalAlign=middle;resizable=0;points=[];" parent="1Op8A7p5LswZUNTb8-j7-130" vertex="1" connectable="0">
          <mxGeometry x="-0.2" y="3" relative="1" as="geometry">
            <mxPoint as="offset" />
          </mxGeometry>
        </mxCell>
        <mxCell id="1Op8A7p5LswZUNTb8-j7-132" value="Exceed limitation" style="rhombus;whiteSpace=wrap;html=1;rounded=1;shadow=0;comic=1;gradientColor=#ffffff;" parent="1" vertex="1">
          <mxGeometry x="502.5" y="895" width="80" height="40" as="geometry" />
        </mxCell>
        <mxCell id="1Op8A7p5LswZUNTb8-j7-133" style="edgeStyle=orthogonalEdgeStyle;rounded=0;orthogonalLoop=1;jettySize=auto;html=1;exitX=1;exitY=0.5;exitDx=0;exitDy=0;" parent="1" source="1Op8A7p5LswZUNTb8-j7-134" edge="1">
          <mxGeometry relative="1" as="geometry">
            <mxPoint x="842.5" y="1070" as="targetPoint" />
          </mxGeometry>
        </mxCell>
        <mxCell id="1Op8A7p5LswZUNTb8-j7-134" value="compute and detach session privileges to redis" style="rounded=0;whiteSpace=wrap;html=1;shadow=0;comic=1;gradientColor=#ffffff;" parent="1" vertex="1">
          <mxGeometry x="555" y="1050" width="120" height="40" as="geometry" />
        </mxCell>
        <mxCell id="1Op8A7p5LswZUNTb8-j7-135" value="Store/Refresh&amp;nbsp;&amp;nbsp;session&lt;br&gt;roles MAP" style="rounded=0;whiteSpace=wrap;html=1;shadow=0;comic=1;gradientColor=#ffffff;" parent="1" vertex="1">
          <mxGeometry x="842.5" y="1045" width="120" height="45" as="geometry" />
        </mxCell>
        <mxCell id="1Op8A7p5LswZUNTb8-j7-136" value="&lt;p style=&quot;margin: 10px 0px 0px ; padding: 0px&quot;&gt;MapName:IDENTITY:SSO:SESSION_ROLE_HASH&lt;/p&gt;&lt;p style=&quot;margin: 10px 0px 0px ; padding: 0px&quot;&gt;Key: sessionId, value: roles set&amp;nbsp;&lt;/p&gt;" style="text;html=1;align=center;verticalAlign=middle;resizable=0;points=[];autosize=1;fillColor=#dae8fc;strokeColor=#6c8ebf;" parent="1" vertex="1">
          <mxGeometry x="987.5" y="1042.5" width="290" height="50" as="geometry" />
        </mxCell>
        <mxCell id="1Op8A7p5LswZUNTb8-j7-137" value="&lt;span style=&quot;background-color: rgb(212 , 225 , 245)&quot;&gt;Basic Company-Account Session Limitation&lt;/span&gt;" style="text;html=1;align=center;verticalAlign=middle;resizable=0;points=[];autosize=1;" parent="1" vertex="1">
          <mxGeometry x="280" y="610" width="250" height="20" as="geometry" />
        </mxCell>
        <mxCell id="1Op8A7p5LswZUNTb8-j7-138" value="&lt;span style=&quot;background-color: rgb(255 , 204 , 153)&quot;&gt;Extra Company-Privilege Session Limitation&lt;/span&gt;" style="text;html=1;align=center;verticalAlign=middle;resizable=0;points=[];autosize=1;" parent="1" vertex="1">
          <mxGeometry x="280" y="840" width="250" height="20" as="geometry" />
        </mxCell>
        <mxCell id="1Op8A7p5LswZUNTb8-j7-139" value="a" style="text;html=1;align=center;verticalAlign=middle;resizable=0;points=[];autosize=1;fillColor=#f8cecc;strokeColor=#b85450;" parent="1" vertex="1">
          <mxGeometry x="987.5" y="890" width="20" height="20" as="geometry" />
        </mxCell>
        <mxCell id="1Op8A7p5LswZUNTb8-j7-140" value="b" style="text;html=1;align=center;verticalAlign=middle;resizable=0;points=[];autosize=1;fillColor=#f8cecc;strokeColor=#b85450;" parent="1" vertex="1">
          <mxGeometry x="987.5" y="945" width="20" height="20" as="geometry" />
        </mxCell>
        <mxCell id="1Op8A7p5LswZUNTb8-j7-141" value="c" style="text;html=1;align=center;verticalAlign=middle;resizable=0;points=[];autosize=1;fillColor=#f8cecc;strokeColor=#b85450;" parent="1" vertex="1">
          <mxGeometry x="987.5" y="1072.5" width="20" height="20" as="geometry" />
        </mxCell>
        <mxCell id="1Op8A7p5LswZUNTb8-j7-142" value="1" style="text;html=1;align=center;verticalAlign=middle;resizable=0;points=[];autosize=1;rounded=0;fillColor=#f8cecc;strokeColor=#b85450;" parent="1" vertex="1">
          <mxGeometry x="632.5" y="440" width="20" height="20" as="geometry" />
        </mxCell>
        <mxCell id="1Op8A7p5LswZUNTb8-j7-143" value="2" style="text;html=1;align=center;verticalAlign=middle;resizable=0;points=[];autosize=1;rounded=0;fillColor=#f8cecc;strokeColor=#b85450;" parent="1" vertex="1">
          <mxGeometry x="632.5" y="520" width="20" height="20" as="geometry" />
        </mxCell>
        <mxCell id="1Op8A7p5LswZUNTb8-j7-144" value="3" style="text;html=1;align=center;verticalAlign=middle;resizable=0;points=[];autosize=1;rounded=0;fillColor=#f8cecc;strokeColor=#b85450;" parent="1" vertex="1">
          <mxGeometry x="632.5" y="590" width="20" height="20" as="geometry" />
        </mxCell>
        <mxCell id="1Op8A7p5LswZUNTb8-j7-145" value="4" style="text;html=1;align=center;verticalAlign=middle;resizable=0;points=[];autosize=1;rounded=0;fillColor=#f8cecc;strokeColor=#b85450;" parent="1" vertex="1">
          <mxGeometry x="632.5" y="650" width="20" height="20" as="geometry" />
        </mxCell>
        <mxCell id="1Op8A7p5LswZUNTb8-j7-146" value="5" style="text;html=1;align=center;verticalAlign=middle;resizable=0;points=[];autosize=1;rounded=0;fillColor=#f8cecc;strokeColor=#b85450;" parent="1" vertex="1">
          <mxGeometry x="322.5" y="707" width="20" height="20" as="geometry" />
        </mxCell>
        <mxCell id="1Op8A7p5LswZUNTb8-j7-147" value="6" style="text;html=1;align=center;verticalAlign=middle;resizable=0;points=[];autosize=1;rounded=0;fillColor=#f8cecc;strokeColor=#b85450;" parent="1" vertex="1">
          <mxGeometry x="632.5" y="710" width="20" height="20" as="geometry" />
        </mxCell>
        <mxCell id="1Op8A7p5LswZUNTb8-j7-148" value="7" style="text;html=1;align=center;verticalAlign=middle;resizable=0;points=[];autosize=1;rounded=0;fillColor=#f8cecc;strokeColor=#b85450;" parent="1" vertex="1">
          <mxGeometry x="472.5" y="770" width="20" height="20" as="geometry" />
        </mxCell>
        <mxCell id="1Op8A7p5LswZUNTb8-j7-149" value="8" style="text;html=1;align=center;verticalAlign=middle;resizable=0;points=[];autosize=1;rounded=0;fillColor=#f8cecc;strokeColor=#b85450;" parent="1" vertex="1">
          <mxGeometry x="632.5" y="830" width="20" height="20" as="geometry" />
        </mxCell>
        <mxCell id="1Op8A7p5LswZUNTb8-j7-150" value="9" style="text;html=1;align=center;verticalAlign=middle;resizable=0;points=[];autosize=1;rounded=0;fillColor=#f8cecc;strokeColor=#b85450;" parent="1" vertex="1">
          <mxGeometry x="322.5" y="885" width="20" height="20" as="geometry" />
        </mxCell>
        <mxCell id="1Op8A7p5LswZUNTb8-j7-151" value="10" style="text;html=1;align=center;verticalAlign=middle;resizable=0;points=[];autosize=1;rounded=0;fillColor=#f8cecc;strokeColor=#b85450;" parent="1" vertex="1">
          <mxGeometry x="627.5" y="885" width="30" height="20" as="geometry" />
        </mxCell>
        <mxCell id="1Op8A7p5LswZUNTb8-j7-152" value="11" style="text;html=1;align=center;verticalAlign=middle;resizable=0;points=[];autosize=1;rounded=0;fillColor=#f8cecc;strokeColor=#b85450;" parent="1" vertex="1">
          <mxGeometry x="402.5" y="975.5" width="30" height="20" as="geometry" />
        </mxCell>
        <mxCell id="1Op8A7p5LswZUNTb8-j7-153" value="12" style="text;html=1;align=center;verticalAlign=middle;resizable=0;points=[];autosize=1;rounded=0;fillColor=#f8cecc;strokeColor=#b85450;" parent="1" vertex="1">
          <mxGeometry x="542.5" y="975.5" width="30" height="20" as="geometry" />
        </mxCell>
        <mxCell id="1Op8A7p5LswZUNTb8-j7-154" value="13" style="text;html=1;align=center;verticalAlign=middle;resizable=0;points=[];autosize=1;rounded=0;fillColor=#f8cecc;strokeColor=#b85450;" parent="1" vertex="1">
          <mxGeometry x="530" y="1040" width="30" height="20" as="geometry" />
        </mxCell>
      </root>
    </mxGraphModel>
  </diagram>
</mxfile>
